<svg version="1.1" id="Layer_1" xmlns="http://www.w3.org/2000/svg" xmlns:xlink="http://www.w3.org/1999/xlink" x="0px" y="0px"
	 width="100%" viewBox="0 0 957 770" enable-background="new 0 0 957 770" xml:space="preserve">
<path fill="#FFFFFF" opacity="1.000000" stroke="none" 
	d="
M689.000000,771.000000 
	C459.333405,771.000000 230.166809,771.000000 1.000154,771.000000 
	C1.000103,514.333496 1.000103,257.666962 1.000051,1.000326 
	C319.999756,1.000217 638.999512,1.000217 957.999451,1.000109 
	C957.999634,257.666351 957.999634,514.332703 957.999817,770.999512 
	C868.500000,771.000000 779.000000,771.000000 689.000000,771.000000 
M334.209991,318.961945 
	C333.497833,326.351074 334.491577,333.444427 337.523865,339.354156 
	C336.043976,343.099701 334.778015,346.303741 333.823120,348.720490 
	C319.092163,347.573578 303.884552,346.543457 288.710022,345.152008 
	C279.158966,344.276245 272.790924,349.890533 266.503601,355.502838 
	C263.323822,358.341217 264.070099,361.725037 268.027710,363.444946 
	C271.477142,364.944061 275.265167,365.664093 279.367188,366.863953 
	C275.948059,368.150482 272.891266,369.300659 269.834503,370.450836 
	C293.191895,369.842590 316.338013,369.928650 339.483154,369.815582 
	C358.310394,369.723633 377.136200,369.330688 395.963379,369.256165 
	C398.056763,369.247864 400.326202,370.135681 402.212036,371.162476 
	C405.274323,372.829834 407.990051,376.413666 411.022949,376.615021 
	C420.112671,377.218414 429.286865,376.640442 438.424530,376.391937 
	C442.984222,376.267944 445.170654,374.014160 443.426727,368.191956 
	C451.468231,368.191956 458.951416,368.312683 466.427887,368.141022 
	C470.167145,368.055176 473.475006,368.021942 476.007935,371.640350 
	C476.947418,372.982513 479.521088,373.921478 481.281525,373.823456 
	C490.161011,373.328979 499.018036,372.431732 507.864471,371.677399 
	C508.445038,362.310608 506.315369,354.978180 500.878296,350.052704 
	C503.032562,343.816833 504.945435,338.279785 506.864258,332.725555 
	C507.549103,337.791046 508.146301,342.903198 508.953278,347.981995 
	C509.761078,353.066010 510.759064,358.120361 511.710052,363.180878 
	C512.504883,367.410431 514.575073,371.513458 518.966858,371.632812 
	C525.854187,371.820038 533.220093,375.049927 539.654053,370.234894 
	C542.400208,368.179688 549.679871,366.407196 552.291931,368.690918 
	C558.142212,373.805908 564.773193,373.595276 571.596375,372.243591 
	C575.894226,371.392120 580.015442,369.428192 584.327698,368.928345 
	C589.084900,368.376892 593.998840,368.622833 598.792542,369.073853 
	C605.689697,369.722717 610.841858,367.587433 613.693481,361.071045 
	C615.225220,357.570862 617.311401,357.734344 620.760864,358.560852 
	C633.333374,361.573273 645.983459,364.397705 658.739319,366.456421 
	C666.116394,367.646973 674.229858,367.611450 679.839355,361.679840 
	C686.175842,354.979553 690.812988,346.768036 691.572266,337.410522 
	C691.902344,333.342194 690.128723,328.737396 688.185913,324.953705 
	C686.258240,321.199371 683.213867,317.858337 680.112671,314.911224 
	C676.955444,311.910828 673.436707,308.840271 669.491211,307.280609 
	C666.927002,306.266937 663.315735,307.902161 660.173584,308.350616 
	C661.253113,311.296692 661.673096,314.781464 663.548523,317.077454 
	C667.534180,321.956848 672.469238,326.047333 676.661255,330.775024 
	C682.036682,336.837311 681.862305,337.778809 676.448547,343.593262 
	C675.314087,344.811707 674.236145,346.084778 673.168945,347.363373 
	C669.367615,351.917450 664.553040,354.683411 658.647888,355.300415 
	C644.702515,356.757568 632.460205,351.397736 621.064209,346.441345 
	C621.064209,333.589020 621.641907,321.591156 620.939026,309.668793 
	C619.641785,287.664978 614.382385,266.617859 602.822815,247.561417 
	C600.660950,243.997498 599.757507,240.532959 599.680237,236.391815 
	C599.438416,223.420746 599.013245,210.445816 594.469543,198.005188 
	C593.558899,195.511642 593.484741,192.613541 593.489136,189.902725 
	C593.504150,180.636627 595.959778,170.632080 593.211426,162.322525 
	C590.699707,154.728653 592.112244,148.905060 593.696594,142.267990 
	C594.235291,140.011047 594.906555,137.695709 594.885193,135.412979 
	C594.833130,129.857895 597.016846,123.720734 590.619202,118.473343 
	C584.638184,123.405960 578.725098,128.427750 572.623962,133.209534 
	C571.143433,134.369919 569.047119,135.356506 567.227173,135.368149 
	C558.408691,135.424545 549.581421,135.259460 540.773071,134.840118 
	C538.801392,134.746262 536.476746,133.762863 535.031677,132.418350 
	C530.066589,127.798874 525.520203,122.731796 520.604553,118.055725 
	C518.488342,116.042625 516.643311,116.149284 515.690796,119.638474 
	C512.893188,129.886536 512.115723,140.179291 513.650391,150.729263 
	C514.097168,153.800766 513.873169,157.202255 513.025696,160.188248 
	C509.836273,171.425842 508.482788,182.325531 516.031433,192.552246 
	C516.581360,193.297195 516.534729,195.231705 515.950378,195.950851 
	C508.553467,205.054321 507.075592,215.750122 507.469452,226.919266 
	C507.837616,237.359818 508.015747,247.835815 509.097290,258.210724 
	C509.664612,263.652679 513.053284,268.863342 513.296814,274.262878 
	C513.781982,285.020874 513.346558,295.866028 512.511841,306.614624 
	C512.196350,310.677185 509.725830,314.572388 508.237640,318.543854 
	C504.759247,311.548950 502.184540,305.093964 500.183624,298.465790 
	C499.280640,295.474640 498.970825,292.070038 499.356323,288.973083 
	C500.155182,282.555359 502.072449,276.261597 502.665039,269.837097 
	C503.517944,260.590179 504.780029,250.960754 499.780609,242.497055 
	C496.964294,237.729141 496.598969,234.271545 499.271423,229.127441 
	C503.556793,220.878754 501.426483,213.711746 494.715729,207.596176 
	C490.713257,203.948700 486.737305,200.272202 482.886597,196.734772 
	C499.656769,178.753754 496.825684,157.155426 495.207947,134.808929 
	C497.061615,137.193176 498.213867,138.675247 499.846161,140.774734 
	C508.559357,131.713379 510.937408,119.983139 515.743286,110.007324 
	C498.486572,105.063423 486.806793,92.342537 473.196564,81.786247 
	C468.966217,87.789268 462.747833,88.207443 456.024506,88.075073 
	C441.970886,87.798378 427.908051,87.991257 414.945618,87.991257 
	C410.703766,91.567474 407.155823,95.651596 402.704468,98.079224 
	C393.999695,102.826553 384.804230,106.678719 375.785065,110.843353 
	C370.290558,113.380470 368.925446,115.531921 371.684357,120.842278 
	C374.956665,127.140747 378.907715,133.171539 383.206299,138.830902 
	C388.941772,146.382126 389.207092,146.180588 396.917084,140.839203 
	C396.830536,156.332550 398.872742,171.287460 404.854767,185.069275 
	C400.263245,188.552383 395.766907,191.464966 391.861664,195.025787 
	C382.700409,203.379105 381.692627,210.161575 387.250854,221.248505 
	C387.861420,222.466293 388.396790,223.993408 388.228424,225.280411 
	C387.669586,229.551544 386.807251,233.785202 385.978973,238.017105 
	C385.802795,238.917160 385.516876,240.031113 384.878906,240.569427 
	C377.629669,246.686523 373.961700,255.119064 370.005676,263.357971 
	C366.920441,269.783295 364.381470,276.520905 360.755005,282.617249 
	C358.662140,286.135559 354.902924,291.084137 351.875946,291.096619 
	C346.398834,291.119263 344.326385,294.142700 342.681824,297.532928 
	C339.461945,304.170654 337.067871,311.208954 334.209991,318.961945 
M578.839661,472.506683 
	C578.839661,467.740753 578.839661,462.974823 578.839661,458.208923 
	C579.205811,458.111511 579.571899,458.014130 579.938049,457.916718 
	C590.731934,493.254089 601.525879,528.591492 612.432495,564.297729 
	C619.407654,564.297729 626.230591,564.307983 633.053223,564.274658 
	C633.512146,564.272400 633.969543,563.940613 634.737915,563.641113 
	C631.250427,512.828369 632.505188,461.963745 635.485718,410.345215 
	C626.312622,410.345215 617.684326,410.238678 609.067322,410.502075 
	C608.157043,410.529846 606.499756,412.775787 606.561523,413.918549 
	C607.378479,429.046509 608.556946,444.154663 609.409363,459.281036 
	C610.199524,473.303223 610.707214,487.341339 611.339355,501.372437 
	C610.887329,501.446960 610.435303,501.521484 609.983276,501.596039 
	C602.155090,471.311462 594.326965,441.026855 586.405090,410.379700 
	C576.340576,410.379700 566.252075,410.379700 555.962402,410.379700 
	C555.962402,411.499817 555.949890,412.473602 555.964111,413.447021 
	C556.413147,444.253387 557.081848,475.058685 557.234863,505.866486 
	C557.326721,524.351379 556.612610,542.840149 556.265015,561.327271 
	C556.224426,563.486633 555.786621,565.969543 559.129089,565.987427 
	C566.716370,566.028076 574.303955,566.000244 581.565796,566.000244 
	C580.650757,534.740723 579.754395,504.122742 578.839661,472.506683 
M722.682556,538.504150 
	C723.451355,496.156464 724.220154,453.808807 724.988586,411.481995 
	C716.704468,411.481995 707.971313,411.481995 699.678223,411.481995 
	C699.678223,439.891571 699.678223,467.990875 699.678223,496.524109 
	C691.697937,496.524109 683.629333,496.524109 675.026489,496.524109 
	C676.000916,467.981354 676.967651,439.663269 677.936096,411.296539 
	C667.958801,411.296539 658.668457,411.296539 649.083618,411.296539 
	C649.585999,463.402985 650.087158,515.385071 650.579285,567.367065 
	C658.659668,567.367065 666.740112,567.367065 675.197388,567.367065 
	C675.197388,549.816711 675.197388,532.567078 675.197388,514.891357 
	C683.663818,515.291138 691.725098,515.671753 700.015137,516.063232 
	C699.371948,533.475525 698.747986,550.367676 698.122925,567.288635 
	C706.701355,567.288635 714.897339,567.288635 722.698059,567.288635 
	C722.698059,557.768250 722.698059,548.636169 722.682556,538.504150 
M204.144730,457.700470 
	C203.459824,472.826050 202.102448,487.958954 202.266998,503.075287 
	C202.455887,520.429321 204.642166,537.662842 212.674683,553.487061 
	C218.220215,564.411865 226.508743,571.708801 239.450653,572.146484 
	C252.894058,572.601135 261.778259,565.545166 267.641449,554.283264 
	C270.305054,549.167053 272.476074,543.639954 273.884338,538.050781 
	C280.786743,510.656128 280.426941,482.953003 276.342499,455.222534 
	C274.639374,443.659546 271.601532,432.410675 264.953094,422.525940 
	C259.206604,413.982147 251.387787,409.014526 240.806854,408.962280 
	C229.326538,408.905640 221.297195,414.703583 215.394974,423.971313 
	C209.009323,433.998199 206.439087,445.357758 204.144730,457.700470 
M384.340912,549.014526 
	C384.660431,545.420166 384.979950,541.825806 385.340271,537.772461 
	C391.825928,538.098938 398.041748,538.411804 404.375702,538.730652 
	C405.151520,549.308044 405.874420,559.163818 406.621826,569.353760 
	C416.194550,568.732849 425.035583,568.159424 432.953949,567.645874 
	C425.020844,515.500244 417.177277,463.943298 409.285156,412.067139 
	C399.056305,412.067139 388.131439,412.067139 377.828918,412.067139 
	C370.635345,464.194580 363.487915,515.987671 356.298889,568.081909 
	C365.204132,568.081909 374.116241,568.081909 383.435364,568.081909 
	C383.720062,561.860718 383.992737,555.902954 384.340912,549.014526 
M734.815063,552.167908 
	C733.983276,557.333130 733.151428,562.498291 732.255432,568.062256 
	C741.690674,568.062256 750.635071,568.062256 759.948975,568.062256 
	C760.573303,558.198792 761.199280,548.308289 761.863708,537.810852 
	C768.438293,538.112915 774.623108,538.397034 781.014404,538.690613 
	C781.812500,549.222412 782.560364,559.090515 783.336487,569.332031 
	C792.694397,568.743591 801.682983,568.178345 809.658142,567.676819 
	C801.718140,515.546204 793.861511,463.962830 785.954407,412.048218 
	C775.892090,412.048218 765.105530,412.048218 753.935608,412.048218 
	C753.626404,414.145386 753.270325,416.235596 753.015564,418.338104 
	C750.054993,442.777863 747.366150,467.254028 744.079895,491.649780 
	C741.394653,511.583313 738.001160,531.421509 734.815063,552.167908 
M315.183289,544.237915 
	C315.183289,535.288025 315.183289,526.338074 315.183289,517.308594 
	C327.033417,513.762695 337.046082,507.350159 344.115082,497.184631 
	C357.818359,477.478577 359.070038,456.056946 351.221405,433.944672 
	C346.602173,420.930695 337.037415,412.276367 323.503540,409.996246 
	C314.849274,408.538269 305.723236,409.806824 296.811340,409.983978 
	C292.508728,410.069458 291.320251,412.180695 291.305786,416.698364 
	C291.171021,458.796539 290.742493,500.894226 290.259155,542.990417 
	C290.158936,551.716858 289.479340,560.436646 289.077850,568.924866 
	C298.424438,568.924866 307.157043,568.924866 315.216187,568.924866 
	C315.216187,560.780823 315.216187,552.981812 315.183289,544.237915 
M843.764709,470.681427 
	C838.331299,463.881744 835.515076,456.356567 836.995117,447.498016 
	C838.874329,436.250214 846.872620,430.458466 857.274719,433.874725 
	C862.604553,435.625153 867.371765,439.088745 872.617554,441.898224 
	C873.214111,433.594025 873.862427,424.569824 874.534729,415.212128 
	C870.324036,413.640198 866.374695,411.899078 862.270752,410.677277 
	C836.963135,403.143066 816.475098,416.557281 812.717712,442.629974 
	C810.137024,460.538300 816.133118,475.694763 826.730225,489.489075 
	C831.588745,495.813538 837.071899,501.656494 841.972229,507.951050 
	C848.173157,515.916443 852.283142,524.688049 850.275208,535.192444 
	C848.302856,545.510193 841.591187,549.760132 831.700745,546.357910 
	C826.655151,544.622192 822.041260,541.631470 817.162292,539.172791 
	C816.837280,545.047180 816.527954,551.153748 816.155090,557.256409 
	C815.560059,566.997803 815.542236,566.996704 825.042908,569.639038 
	C848.351501,576.121887 867.095520,565.045166 871.598816,541.556152 
	C874.787170,524.925476 872.270996,508.897156 862.754395,494.701874 
	C857.221069,486.448212 850.411926,479.049927 843.764709,470.681427 
M72.460457,450.416718 
	C72.245621,489.967194 72.030785,529.517700 71.818077,568.677856 
	C90.303108,568.677856 109.065941,568.677856 127.981400,568.677856 
	C127.981400,560.781372 127.981400,553.289856 127.981400,545.893250 
	C116.183273,546.786926 104.837761,547.646362 93.493011,548.505737 
	C93.493011,535.241882 93.493011,522.825073 93.493011,509.881287 
	C101.114769,509.881287 108.331528,509.881287 115.464005,509.881287 
	C115.464005,502.277802 115.464005,495.209137 115.464005,487.688080 
	C108.055740,487.688080 100.971085,487.688080 93.431313,487.688080 
	C94.082184,469.597687 94.715767,451.987915 95.380493,433.512482 
	C105.967484,434.316467 115.970406,435.076111 126.150978,435.849213 
	C126.150978,427.592010 126.150978,419.503418 126.150978,411.484619 
	C107.803093,411.484619 89.601036,411.484619 70.826248,411.484619 
	C71.354919,424.239624 71.877121,436.838470 72.460457,450.416718 
M149.314987,425.860046 
	C145.843979,433.361664 141.478531,440.588287 139.071442,448.417053 
	C132.143753,470.948273 132.725937,494.082550 135.564178,517.181641 
	C137.091324,529.610535 140.144135,541.703552 146.805893,552.537354 
	C151.392273,559.996155 157.269608,565.976318 165.782013,569.131592 
	C176.236221,573.006775 186.046295,570.027283 195.816483,566.740723 
	C196.907120,566.373901 198.117783,563.939758 197.942139,562.644836 
	C197.101379,556.447327 195.802170,550.312073 194.609009,543.846436 
	C193.331985,544.305481 192.422745,544.593079 191.543823,544.954346 
	C180.590210,549.457214 173.078156,546.977173 167.191513,536.727783 
	C165.881989,534.447693 164.656616,531.990784 164.051605,529.457886 
	C162.011414,520.916504 159.443039,512.386169 158.581100,503.702240 
	C156.727295,485.025421 157.853271,466.457764 164.965454,448.775146 
	C169.658463,437.107239 177.418457,429.949188 191.975891,436.323059 
	C192.193481,436.418335 192.516800,436.272125 193.101288,436.200653 
	C193.470123,432.278473 193.809814,428.314758 194.221161,424.358490 
	C195.431229,412.720001 194.518799,411.403381 182.681976,409.518005 
	C179.787857,409.057007 176.696396,409.145660 173.787933,409.588135 
	C163.442963,411.161865 156.045456,417.412811 149.314987,425.860046 
M530.493835,566.589905 
	C535.301270,566.589905 540.108643,566.589905 545.576050,566.589905 
	C545.576050,559.494995 545.576050,552.286621 545.576050,544.811646 
	C541.218262,544.811646 536.784668,544.811646 530.978271,544.811646 
	C531.716431,507.645538 532.448975,470.759308 533.187195,433.587891 
	C537.482544,433.587891 540.562866,433.587891 544.155762,433.587891 
	C544.155762,426.229767 544.155762,419.172089 544.155762,411.434875 
	C528.930176,411.434875 513.689697,411.434875 498.202301,411.434875 
	C498.202301,418.595001 498.202301,426.153900 498.202301,433.774353 
	C502.058594,433.774353 505.664673,433.774353 509.536774,433.774353 
	C509.536774,470.675049 509.536774,507.379639 509.536774,544.104614 
	C505.273224,544.104614 502.190125,544.104614 498.880615,544.104614 
	C498.880615,551.934021 498.880615,559.520264 498.880615,566.557678 
	C509.264282,566.557678 519.380005,566.557678 530.493835,566.589905 
M450.947906,533.373779 
	C450.947906,545.139526 450.947906,556.905273 450.947906,568.785034 
	C457.679230,568.785034 465.266663,568.785034 473.220886,568.785034 
	C471.948395,523.831726 472.073578,479.120422 475.083160,434.417450 
	C480.102692,434.417450 484.733612,434.569031 489.342529,434.317261 
	C490.589874,434.249176 492.788483,433.003784 492.821747,432.224945 
	C493.102448,425.651764 492.981873,419.061401 492.981873,412.061340 
	C472.598328,412.061340 452.717133,412.061340 432.536072,412.061340 
	C432.536072,419.693512 432.536072,427.102448 432.536072,434.686157 
	C438.612915,434.686157 444.499969,434.686157 450.970306,434.686157 
	C450.970306,467.493103 450.970306,499.947357 450.947906,533.373779 
z"/>
<path fill="#010101" opacity="1.000000" stroke="none" 
	d="
M334.270996,318.521698 
	C337.067871,311.208954 339.461945,304.170654 342.681824,297.532928 
	C344.326385,294.142700 346.398834,291.119263 351.875946,291.096619 
	C354.902924,291.084137 358.662140,286.135559 360.755005,282.617249 
	C364.381470,276.520905 366.920441,269.783295 370.005676,263.357971 
	C373.961700,255.119064 377.629669,246.686523 384.878906,240.569427 
	C385.516876,240.031113 385.802795,238.917160 385.978973,238.017105 
	C386.807251,233.785202 387.669586,229.551544 388.228424,225.280411 
	C388.396790,223.993408 387.861420,222.466293 387.250854,221.248505 
	C381.692627,210.161575 382.700409,203.379105 391.861664,195.025787 
	C395.766907,191.464966 400.263245,188.552383 404.854767,185.069275 
	C398.872742,171.287460 396.830536,156.332550 396.917084,140.839203 
	C389.207092,146.180588 388.941772,146.382126 383.206299,138.830902 
	C378.907715,133.171539 374.956665,127.140747 371.684357,120.842278 
	C368.925446,115.531921 370.290558,113.380470 375.785065,110.843353 
	C384.804230,106.678719 393.999695,102.826553 402.704468,98.079224 
	C407.155823,95.651596 410.703766,91.567474 414.945618,87.991257 
	C427.908051,87.991257 441.970886,87.798378 456.024506,88.075073 
	C462.747833,88.207443 468.966217,87.789268 473.196564,81.786247 
	C486.806793,92.342537 498.486572,105.063423 515.743286,110.007324 
	C510.937408,119.983139 508.559357,131.713379 499.846161,140.774734 
	C498.213867,138.675247 497.061615,137.193176 495.207947,134.808929 
	C496.825684,157.155426 499.656769,178.753754 482.886597,196.734772 
	C486.737305,200.272202 490.713257,203.948700 494.715729,207.596176 
	C501.426483,213.711746 503.556793,220.878754 499.271423,229.127441 
	C496.598969,234.271545 496.964294,237.729141 499.780609,242.497055 
	C504.780029,250.960754 503.517944,260.590179 502.665039,269.837097 
	C502.072449,276.261597 500.155182,282.555359 499.356323,288.973083 
	C498.970825,292.070038 499.280640,295.474640 500.183624,298.465790 
	C502.184540,305.093964 504.759247,311.548950 508.237640,318.543854 
	C509.725830,314.572388 512.196350,310.677185 512.511841,306.614624 
	C513.346558,295.866028 513.781982,285.020874 513.296814,274.262878 
	C513.053284,268.863342 509.664612,263.652679 509.097290,258.210724 
	C508.015747,247.835815 507.837616,237.359818 507.469452,226.919266 
	C507.075592,215.750122 508.553467,205.054321 515.950378,195.950851 
	C516.534729,195.231705 516.581360,193.297195 516.031433,192.552246 
	C508.482788,182.325531 509.836273,171.425842 513.025696,160.188248 
	C513.873169,157.202255 514.097168,153.800766 513.650391,150.729263 
	C512.115723,140.179291 512.893188,129.886536 515.690796,119.638474 
	C516.643311,116.149284 518.488342,116.042625 520.604553,118.055725 
	C525.520203,122.731796 530.066589,127.798874 535.031677,132.418350 
	C536.476746,133.762863 538.801392,134.746262 540.773071,134.840118 
	C549.581421,135.259460 558.408691,135.424545 567.227173,135.368149 
	C569.047119,135.356506 571.143433,134.369919 572.623962,133.209534 
	C578.725098,128.427750 584.638184,123.405960 590.619202,118.473343 
	C597.016846,123.720734 594.833130,129.857895 594.885193,135.412979 
	C594.906555,137.695709 594.235291,140.011047 593.696594,142.267990 
	C592.112244,148.905060 590.699707,154.728653 593.211426,162.322525 
	C595.959778,170.632080 593.504150,180.636627 593.489136,189.902725 
	C593.484741,192.613541 593.558899,195.511642 594.469543,198.005188 
	C599.013245,210.445816 599.438416,223.420746 599.680237,236.391815 
	C599.757507,240.532959 600.660950,243.997498 602.822815,247.561417 
	C614.382385,266.617859 619.641785,287.664978 620.939026,309.668793 
	C621.641907,321.591156 621.064209,333.589020 621.064209,346.441345 
	C632.460205,351.397736 644.702515,356.757568 658.647888,355.300415 
	C664.553040,354.683411 669.367615,351.917450 673.168945,347.363373 
	C674.236145,346.084778 675.314087,344.811707 676.448547,343.593262 
	C681.862305,337.778809 682.036682,336.837311 676.661255,330.775024 
	C672.469238,326.047333 667.534180,321.956848 663.548523,317.077454 
	C661.673096,314.781464 661.253113,311.296692 660.173584,308.350616 
	C663.315735,307.902161 666.927002,306.266937 669.491211,307.280609 
	C673.436707,308.840271 676.955444,311.910828 680.112671,314.911224 
	C683.213867,317.858337 686.258240,321.199371 688.185913,324.953705 
	C690.128723,328.737396 691.902344,333.342194 691.572266,337.410522 
	C690.812988,346.768036 686.175842,354.979553 679.839355,361.679840 
	C674.229858,367.611450 666.116394,367.646973 658.739319,366.456421 
	C645.983459,364.397705 633.333374,361.573273 620.760864,358.560852 
	C617.311401,357.734344 615.225220,357.570862 613.693481,361.071045 
	C610.841858,367.587433 605.689697,369.722717 598.792542,369.073853 
	C593.998840,368.622833 589.084900,368.376892 584.327698,368.928345 
	C580.015442,369.428192 575.894226,371.392120 571.596375,372.243591 
	C564.773193,373.595276 558.142212,373.805908 552.291931,368.690918 
	C549.679871,366.407196 542.400208,368.179688 539.654053,370.234894 
	C533.220093,375.049927 525.854187,371.820038 518.966858,371.632812 
	C514.575073,371.513458 512.504883,367.410431 511.710052,363.180878 
	C510.759064,358.120361 509.761078,353.066010 508.953278,347.981995 
	C508.146301,342.903198 507.549103,337.791046 506.864258,332.725555 
	C504.945435,338.279785 503.032562,343.816833 500.878296,350.052704 
	C506.315369,354.978180 508.445038,362.310608 507.864471,371.677399 
	C499.018036,372.431732 490.161011,373.328979 481.281525,373.823456 
	C479.521088,373.921478 476.947418,372.982513 476.007935,371.640350 
	C473.475006,368.021942 470.167145,368.055176 466.427887,368.141022 
	C458.951416,368.312683 451.468231,368.191956 443.426727,368.191956 
	C445.170654,374.014160 442.984222,376.267944 438.424530,376.391937 
	C429.286865,376.640442 420.112671,377.218414 411.022949,376.615021 
	C407.990051,376.413666 405.274323,372.829834 402.212036,371.162476 
	C400.326202,370.135681 398.056763,369.247864 395.963379,369.256165 
	C377.136200,369.330688 358.310394,369.723633 339.483154,369.815582 
	C316.338013,369.928650 293.191895,369.842590 269.834503,370.450836 
	C272.891266,369.300659 275.948059,368.150482 279.367188,366.863953 
	C275.265167,365.664093 271.477142,364.944061 268.027710,363.444946 
	C264.070099,361.725037 263.323822,358.341217 266.503601,355.502838 
	C272.790924,349.890533 279.158966,344.276245 288.710022,345.152008 
	C303.884552,346.543457 319.092163,347.573578 333.823120,348.720490 
	C334.778015,346.303741 336.043976,343.099701 337.523865,339.354156 
	C334.491577,333.444427 333.497833,326.351074 334.270996,318.521698 
z"/>
<path fill="#030303" opacity="1.000000" stroke="none" 
	d="
M578.848877,473.005737 
	C579.754395,504.122742 580.650757,534.740723 581.565796,566.000244 
	C574.303955,566.000244 566.716370,566.028076 559.129089,565.987427 
	C555.786621,565.969543 556.224426,563.486633 556.265015,561.327271 
	C556.612610,542.840149 557.326721,524.351379 557.234863,505.866486 
	C557.081848,475.058685 556.413147,444.253387 555.964111,413.447021 
	C555.949890,412.473602 555.962402,411.499817 555.962402,410.379700 
	C566.252075,410.379700 576.340576,410.379700 586.405090,410.379700 
	C594.326965,441.026855 602.155090,471.311462 609.983276,501.596039 
	C610.435303,501.521484 610.887329,501.446960 611.339355,501.372437 
	C610.707214,487.341339 610.199524,473.303223 609.409363,459.281036 
	C608.556946,444.154663 607.378479,429.046509 606.561523,413.918549 
	C606.499756,412.775787 608.157043,410.529846 609.067322,410.502075 
	C617.684326,410.238678 626.312622,410.345215 635.485718,410.345215 
	C632.505188,461.963745 631.250427,512.828369 634.737915,563.641113 
	C633.969543,563.940613 633.512146,564.272400 633.053223,564.274658 
	C626.230591,564.307983 619.407654,564.297729 612.432495,564.297729 
	C601.525879,528.591492 590.731934,493.254089 579.938049,457.916718 
	C579.571899,458.014130 579.205811,458.111511 578.839661,458.208923 
	C578.839661,462.974823 578.839661,467.740753 578.848877,473.005737 
z"/>
<path fill="#030303" opacity="1.000000" stroke="none" 
	d="
M722.690308,539.004150 
	C722.698059,548.636169 722.698059,557.768250 722.698059,567.288635 
	C714.897339,567.288635 706.701355,567.288635 698.122925,567.288635 
	C698.747986,550.367676 699.371948,533.475525 700.015137,516.063232 
	C691.725098,515.671753 683.663818,515.291138 675.197388,514.891357 
	C675.197388,532.567078 675.197388,549.816711 675.197388,567.367065 
	C666.740112,567.367065 658.659668,567.367065 650.583862,567.367126 
	C650.087158,515.385071 649.585999,463.402985 649.083618,411.296539 
	C658.668457,411.296539 667.958801,411.296539 677.936096,411.296539 
	C676.967651,439.663269 676.000916,467.981354 675.026489,496.524109 
	C683.629333,496.524109 691.697937,496.524109 699.678223,496.524109 
	C699.678223,467.990875 699.678223,439.891571 699.678223,411.481995 
	C707.971313,411.481995 716.704468,411.481995 724.988586,411.481995 
	C724.220154,453.808807 723.451355,496.156464 722.690308,539.004150 
z"/>
<path fill="#020202" opacity="1.000000" stroke="none" 
	d="
M204.215256,457.269226 
	C206.439087,445.357758 209.009323,433.998199 215.394974,423.971313 
	C221.297195,414.703583 229.326538,408.905640 240.806854,408.962280 
	C251.387787,409.014526 259.206604,413.982147 264.953094,422.525940 
	C271.601532,432.410675 274.639374,443.659546 276.342499,455.222534 
	C280.426941,482.953003 280.786743,510.656128 273.884338,538.050781 
	C272.476074,543.639954 270.305054,549.167053 267.641449,554.283264 
	C261.778259,565.545166 252.894058,572.601135 239.450653,572.146484 
	C226.508743,571.708801 218.220215,564.411865 212.674683,553.487061 
	C204.642166,537.662842 202.455887,520.429321 202.266998,503.075287 
	C202.102448,487.958954 203.459824,472.826050 204.215256,457.269226 
M251.844788,530.182312 
	C255.012665,504.607574 255.101990,479.010315 251.911194,453.450287 
	C251.217728,447.895264 249.826141,442.266846 247.686096,437.116882 
	C246.517349,434.304291 242.893799,430.402252 240.759567,430.626709 
	C238.002609,430.916656 235.022827,434.464233 233.258072,437.304413 
	C231.483093,440.161011 230.714752,443.808258 230.135117,447.216156 
	C225.689194,473.354614 225.900284,499.637909 228.726303,525.879517 
	C229.477493,532.854980 231.540314,539.932373 234.351227,546.373779 
	C237.113525,552.703674 243.327225,552.675476 246.477737,546.523804 
	C248.933624,541.728394 250.004654,536.223816 251.844788,530.182312 
z"/>
<path fill="#020202" opacity="1.000000" stroke="none" 
	d="
M384.303162,549.479858 
	C383.992737,555.902954 383.720062,561.860718 383.435364,568.081909 
	C374.116241,568.081909 365.204132,568.081909 356.298889,568.081909 
	C363.487915,515.987671 370.635345,464.194580 377.828918,412.067139 
	C388.131439,412.067139 399.056305,412.067139 409.285156,412.067139 
	C417.177277,463.943298 425.020844,515.500244 432.953949,567.645874 
	C425.035583,568.159424 416.194550,568.732849 406.621826,569.353760 
	C405.874420,559.163818 405.151520,549.308044 404.375702,538.730652 
	C398.041748,538.411804 391.825928,538.098938 385.340271,537.772461 
	C384.979950,541.825806 384.660431,545.420166 384.303162,549.479858 
M398.021545,476.257385 
	C396.922455,466.555695 395.823395,456.854004 394.724304,447.152283 
	C394.257568,447.178467 393.790863,447.204620 393.324127,447.230774 
	C391.055389,471.211273 388.786682,495.191772 386.475311,519.622803 
	C392.345032,519.622803 397.499634,519.622803 402.791931,519.622803 
	C401.218414,505.207642 399.687012,491.178528 398.021545,476.257385 
z"/>
<path fill="#020202" opacity="1.000000" stroke="none" 
	d="
M734.868347,551.734924 
	C738.001160,531.421509 741.394653,511.583313 744.079895,491.649780 
	C747.366150,467.254028 750.054993,442.777863 753.015564,418.338104 
	C753.270325,416.235596 753.626404,414.145386 753.935608,412.048218 
	C765.105530,412.048218 775.892090,412.048218 785.954407,412.048218 
	C793.861511,463.962830 801.718140,515.546204 809.658142,567.676819 
	C801.682983,568.178345 792.694397,568.743591 783.336487,569.332031 
	C782.560364,559.090515 781.812500,549.222412 781.014404,538.690613 
	C774.623108,538.397034 768.438293,538.112915 761.863708,537.810852 
	C761.199280,548.308289 760.573303,558.198792 759.948975,568.062256 
	C750.635071,568.062256 741.690674,568.062256 732.255432,568.062256 
	C733.151428,562.498291 733.983276,557.333130 734.868347,551.734924 
M769.197388,455.779297 
	C767.200439,476.899780 765.203552,498.020233 763.163452,519.597412 
	C768.847778,519.597412 774.008667,519.597412 779.583496,519.597412 
	C776.852295,495.296082 774.159973,471.340546 771.467712,447.385010 
	C771.076355,447.430023 770.684998,447.475037 770.293640,447.520050 
	C769.962769,449.980804 769.631897,452.441528 769.197388,455.779297 
z"/>
<path fill="#030303" opacity="1.000000" stroke="none" 
	d="
M315.199738,544.710327 
	C315.216187,552.981812 315.216187,560.780823 315.216187,568.924866 
	C307.157043,568.924866 298.424438,568.924866 289.077850,568.924866 
	C289.479340,560.436646 290.158936,551.716858 290.259155,542.990417 
	C290.742493,500.894226 291.171021,458.796539 291.305786,416.698364 
	C291.320251,412.180695 292.508728,410.069458 296.811340,409.983978 
	C305.723236,409.806824 314.849274,408.538269 323.503540,409.996246 
	C337.037415,412.276367 346.602173,420.930695 351.221405,433.944672 
	C359.070038,456.056946 357.818359,477.478577 344.115082,497.184631 
	C337.046082,507.350159 327.033417,513.762695 315.183289,517.308594 
	C315.183289,526.338074 315.183289,535.288025 315.199738,544.710327 
M314.710602,495.043976 
	C314.788818,495.950653 314.867004,496.857330 314.955078,497.878387 
	C327.326843,492.844360 334.675568,476.181610 332.800110,457.638000 
	C331.441742,444.207581 326.195465,429.213226 315.807129,427.862274 
	C315.443024,449.997498 315.080017,472.065613 314.710602,495.043976 
z"/>
<path fill="#030303" opacity="1.000000" stroke="none" 
	d="
M843.970764,470.974091 
	C850.411926,479.049927 857.221069,486.448212 862.754395,494.701874 
	C872.270996,508.897156 874.787170,524.925476 871.598816,541.556152 
	C867.095520,565.045166 848.351501,576.121887 825.042908,569.639038 
	C815.542236,566.996704 815.560059,566.997803 816.155090,557.256409 
	C816.527954,551.153748 816.837280,545.047180 817.162292,539.172791 
	C822.041260,541.631470 826.655151,544.622192 831.700745,546.357910 
	C841.591187,549.760132 848.302856,545.510193 850.275208,535.192444 
	C852.283142,524.688049 848.173157,515.916443 841.972229,507.951050 
	C837.071899,501.656494 831.588745,495.813538 826.730225,489.489075 
	C816.133118,475.694763 810.137024,460.538300 812.717712,442.629974 
	C816.475098,416.557281 836.963135,403.143066 862.270752,410.677277 
	C866.374695,411.899078 870.324036,413.640198 874.534729,415.212128 
	C873.862427,424.569824 873.214111,433.594025 872.617554,441.898224 
	C867.371765,439.088745 862.604553,435.625153 857.274719,433.874725 
	C846.872620,430.458466 838.874329,436.250214 836.995117,447.498016 
	C835.515076,456.356567 838.331299,463.881744 843.970764,470.974091 
z"/>
<path fill="#020202" opacity="1.000000" stroke="none" 
	d="
M72.429886,449.927002 
	C71.877121,436.838470 71.354919,424.239624 70.826248,411.484619 
	C89.601036,411.484619 107.803093,411.484619 126.150978,411.484619 
	C126.150978,419.503418 126.150978,427.592010 126.150978,435.849213 
	C115.970406,435.076111 105.967484,434.316467 95.380493,433.512482 
	C94.715767,451.987915 94.082184,469.597687 93.431313,487.688080 
	C100.971085,487.688080 108.055740,487.688080 115.464005,487.688080 
	C115.464005,495.209137 115.464005,502.277802 115.464005,509.881287 
	C108.331528,509.881287 101.114769,509.881287 93.493011,509.881287 
	C93.493011,522.825073 93.493011,535.241882 93.493011,548.505737 
	C104.837761,547.646362 116.183273,546.786926 127.981400,545.893250 
	C127.981400,553.289856 127.981400,560.781372 127.981400,568.677856 
	C109.065941,568.677856 90.303108,568.677856 71.818077,568.677856 
	C72.030785,529.517700 72.245621,489.967194 72.429886,449.927002 
z"/>
<path fill="#020202" opacity="1.000000" stroke="none" 
	d="
M149.552307,425.590668 
	C156.045456,417.412811 163.442963,411.161865 173.787933,409.588135 
	C176.696396,409.145660 179.787857,409.057007 182.681976,409.518005 
	C194.518799,411.403381 195.431229,412.720001 194.221161,424.358490 
	C193.809814,428.314758 193.470123,432.278473 193.101288,436.200653 
	C192.516800,436.272125 192.193481,436.418335 191.975891,436.323059 
	C177.418457,429.949188 169.658463,437.107239 164.965454,448.775146 
	C157.853271,466.457764 156.727295,485.025421 158.581100,503.702240 
	C159.443039,512.386169 162.011414,520.916504 164.051605,529.457886 
	C164.656616,531.990784 165.881989,534.447693 167.191513,536.727783 
	C173.078156,546.977173 180.590210,549.457214 191.543823,544.954346 
	C192.422745,544.593079 193.331985,544.305481 194.609009,543.846436 
	C195.802170,550.312073 197.101379,556.447327 197.942139,562.644836 
	C198.117783,563.939758 196.907120,566.373901 195.816483,566.740723 
	C186.046295,570.027283 176.236221,573.006775 165.782013,569.131592 
	C157.269608,565.976318 151.392273,559.996155 146.805893,552.537354 
	C140.144135,541.703552 137.091324,529.610535 135.564178,517.181641 
	C132.725937,494.082550 132.143753,470.948273 139.071442,448.417053 
	C141.478531,440.588287 145.843979,433.361664 149.552307,425.590668 
z"/>
<path fill="#030303" opacity="1.000000" stroke="none" 
	d="
M529.994751,566.573792 
	C519.380005,566.557678 509.264282,566.557678 498.880615,566.557678 
	C498.880615,559.520264 498.880615,551.934021 498.880615,544.104614 
	C502.190125,544.104614 505.273224,544.104614 509.536774,544.104614 
	C509.536774,507.379639 509.536774,470.675049 509.536774,433.774353 
	C505.664673,433.774353 502.058594,433.774353 498.202301,433.774353 
	C498.202301,426.153900 498.202301,418.595001 498.202301,411.434875 
	C513.689697,411.434875 528.930176,411.434875 544.155762,411.434875 
	C544.155762,419.172089 544.155762,426.229767 544.155762,433.587891 
	C540.562866,433.587891 537.482544,433.587891 533.187195,433.587891 
	C532.448975,470.759308 531.716431,507.645538 530.978271,544.811646 
	C536.784668,544.811646 541.218262,544.811646 545.576050,544.811646 
	C545.576050,552.286621 545.576050,559.494995 545.576050,566.589905 
	C540.108643,566.589905 535.301270,566.589905 529.994751,566.573792 
z"/>
<path fill="#040404" opacity="1.000000" stroke="none" 
	d="
M450.959106,532.887695 
	C450.970306,499.947357 450.970306,467.493103 450.970306,434.686157 
	C444.499969,434.686157 438.612915,434.686157 432.536072,434.686157 
	C432.536072,427.102448 432.536072,419.693512 432.536072,412.061340 
	C452.717133,412.061340 472.598328,412.061340 492.981873,412.061340 
	C492.981873,419.061401 493.102448,425.651764 492.821747,432.224945 
	C492.788483,433.003784 490.589874,434.249176 489.342529,434.317261 
	C484.733612,434.569031 480.102692,434.417450 475.083160,434.417450 
	C472.073578,479.120422 471.948395,523.831726 473.220886,568.785034 
	C465.266663,568.785034 457.679230,568.785034 450.947906,568.785034 
	C450.947906,556.905273 450.947906,545.139526 450.959106,532.887695 
z"/>
<path fill="#FCFCFC" opacity="1.000000" stroke="none" 
	d="
M251.767944,530.608337 
	C250.004654,536.223816 248.933624,541.728394 246.477737,546.523804 
	C243.327225,552.675476 237.113525,552.703674 234.351227,546.373779 
	C231.540314,539.932373 229.477493,532.854980 228.726303,525.879517 
	C225.900284,499.637909 225.689194,473.354614 230.135117,447.216156 
	C230.714752,443.808258 231.483093,440.161011 233.258072,437.304413 
	C235.022827,434.464233 238.002609,430.916656 240.759567,430.626709 
	C242.893799,430.402252 246.517349,434.304291 247.686096,437.116882 
	C249.826141,442.266846 251.217728,447.895264 251.911194,453.450287 
	C255.101990,479.010315 255.012665,504.607574 251.767944,530.608337 
z"/>
<path fill="#F7F7F7" opacity="1.000000" stroke="none" 
	d="
M398.088562,476.703400 
	C399.687012,491.178528 401.218414,505.207642 402.791931,519.622803 
	C397.499634,519.622803 392.345032,519.622803 386.475311,519.622803 
	C388.786682,495.191772 391.055389,471.211273 393.324127,447.230774 
	C393.790863,447.204620 394.257568,447.178467 394.724304,447.152283 
	C395.823395,456.854004 396.922455,466.555695 398.088562,476.703400 
z"/>
<path fill="#F7F7F7" opacity="1.000000" stroke="none" 
	d="
M769.249207,455.340790 
	C769.631897,452.441528 769.962769,449.980804 770.293640,447.520050 
	C770.684998,447.475037 771.076355,447.430023 771.467712,447.385010 
	C774.159973,471.340546 776.852295,495.296082 779.583496,519.597412 
	C774.008667,519.597412 768.847778,519.597412 763.163452,519.597412 
	C765.203552,498.020233 767.200439,476.899780 769.249207,455.340790 
z"/>
<path fill="#FBFBFB" opacity="1.000000" stroke="none" 
	d="
M314.713806,494.588867 
	C315.080017,472.065613 315.443024,449.997498 315.807129,427.862274 
	C326.195465,429.213226 331.441742,444.207581 332.800110,457.638000 
	C334.675568,476.181610 327.326843,492.844360 314.955078,497.878387 
	C314.867004,496.857330 314.788818,495.950653 314.713806,494.588867 
z"/>
</svg>